<svg width="141.6" height="84.65972439244325" viewBox="0 0 230 137.51226419676516" class="looka-1j8o68f"><defs id="SvgjsDefs2777"></defs><g id="SvgjsG2778" featurekey="HdFLvg-0" transform="matrix(0.6976744186046512,0,0,0.6976744186046512,-4.883720930232558,34.41860465116279)" fill="none"><g xmlns="http://www.w3.org/2000/svg"><path d="M81,8c-6.6,0-12,5.4-12,12s5.4,12,12,12s12-5.4,12-12S87.6,8,81,8z M81,24c-2.2,0-4-1.8-4-4s1.8-4,4-4s4,1.8,4,4   S83.2,24,81,24z"></path><path d="M81,38c-1.9,0-3.8,0.5-5.4,1.3L61,24.7c0.6-1.5,1-3,1-4.7c0-6.6-5.4-12-12-12s-12,5.4-12,12s5.4,12,12,12   c2,0,3.9-0.5,5.6-1.4l14.5,14.5C69.4,46.6,69,48.2,69,50c0,6.6,5.4,12,12,12s12-5.4,12-12S87.6,38,81,38z M46,20c0-2.2,1.8-4,4-4   s4,1.8,4,4s-1.8,4-4,4S46,22.2,46,20z M81,54c-2.2,0-4-1.8-4-4s1.8-4,4-4s4,1.8,4,4S83.2,54,81,54z"></path><path d="M62,50c0-6.6-5.4-12-12-12s-12,5.4-12,12s5.4,12,12,12S62,56.6,62,50z M46,50c0-2.2,1.8-4,4-4s4,1.8,4,4s-1.8,4-4,4   S46,52.2,46,50z"></path><path d="M19,92c6.6,0,12-5.4,12-12s-5.4-12-12-12S7,73.4,7,80S12.4,92,19,92z M19,76c2.2,0,4,1.8,4,4s-1.8,4-4,4s-4-1.8-4-4   S16.8,76,19,76z"></path><path d="M81,68c-5.2,0-9.6,3.3-11.3,8h-8.4c-1.7-4.7-6.1-8-11.3-8c-3,0-5.7,1.1-7.7,2.8L28.6,57.2c1.5-2,2.4-4.5,2.4-7.2   c0-5.2-3.3-9.6-8-11.3v-7.4c4.7-1.7,8-6.1,8-11.3c0-6.6-5.4-12-12-12S7,13.4,7,20c0,5.2,3.3,9.6,8,11.3v7.4c-4.7,1.7-8,6.1-8,11.3   c0,6.6,5.4,12,12,12c1,0,1.9-0.1,2.8-0.3l16.4,16.4C38.1,78.7,38,79.3,38,80c0,6.6,5.4,12,12,12c5.2,0,9.6-3.3,11.3-8h8.4   c1.7,4.7,6.1,8,11.3,8c6.6,0,12-5.4,12-12S87.6,68,81,68z M19,16c2.2,0,4,1.8,4,4s-1.8,4-4,4s-4-1.8-4-4S16.8,16,19,16z M15,50   c0-2.2,1.8-4,4-4s4,1.8,4,4s-1.8,4-4,4S15,52.2,15,50z M50,84c-2.2,0-4-1.8-4-4s1.8-4,4-4s4,1.8,4,4S52.2,84,50,84z M81,84   c-2.2,0-4-1.8-4-4s1.8-4,4-4s4,1.8,4,4S83.2,84,81,84z"></path></g></g><g id="SvgjsG2779" featurekey="VomJeJ-0" transform="matrix(7.3457401297968605,0,0,7.3457401297968605,75.59255180642371,-41.7238026762663)" fill="none"><path d="M9.68 18.56 q-0.1 0.42 -0.38 0.9 t-0.58 0.7 q-1.4 -0.04 -2.16 -1.06 q-1.3 1.2 -2.82 1.2 q-0.78 0 -1.36 -0.25 t-0.98 -0.67 t-0.6 -0.97 t-0.2 -1.15 q0 -0.86 0.31 -1.51 t0.85 -1.08 t1.26 -0.65 t1.54 -0.22 q0.46 0 0.81 0.01 t0.61 0.03 l0 -0.38 q0 -1.26 -1.3 -1.26 q-0.84 0 -2.94 0.64 q-0.6 -0.7 -0.76 -2.18 q0.48 -0.18 1.07 -0.34 t1.21 -0.28 t1.22 -0.19 t1.08 -0.07 q0.7 0 1.35 0.2 t1.14 0.61 t0.78 1.06 t0.29 1.55 l0 4.06 q0 0.92 0.56 1.3 z M3.64 17.06 q0 0.94 1.08 0.94 q0.56 0 1.26 -0.58 l0 -1.6 q-0.4 -0.02 -0.67 -0.03 t-0.41 -0.01 q-1.26 0 -1.26 1.28 z M15.18 12.32 l0 7.1 q0 1.16 -0.16 2 t-0.59 1.43 t-1.18 0.96 t-1.91 0.59 q-0.34 -0.26 -0.58 -0.81 t-0.26 -1.09 q0.46 -0.2 0.77 -0.41 t0.49 -0.49 t0.26 -0.65 t0.08 -0.89 l0 -6.68 q0 -1.16 -0.94 -1.16 l-0.48 0 q-0.08 -0.24 -0.11 -0.52 t-0.03 -0.56 q0 -0.62 0.14 -1.1 q0.58 -0.04 1.06 -0.07 t0.86 -0.03 l0.44 0 q0.98 0 1.56 0.64 t0.58 1.74 z M11.62 6 q0.58 -0.32 1.5 -0.32 q0.94 0 1.46 0.32 q0.24 0.54 0.24 1.16 t-0.24 1.16 q-0.58 0.3 -1.52 0.3 t-1.44 -0.3 q-0.24 -0.54 -0.24 -1.16 t0.24 -1.16 z M17.64 17.42 q0.34 -0.18 0.74 -0.27 t0.82 -0.09 q0.92 0 1.58 0.36 q0.24 0.52 0.24 1.22 q0 0.34 -0.06 0.65 t-0.18 0.55 q-0.56 0.38 -1.58 0.38 q-1 0 -1.56 -0.38 q-0.12 -0.24 -0.18 -0.55 t-0.06 -0.65 q0 -0.7 0.24 -1.22 z"></path></g></svg>